<svg width="133" height="56" viewBox="0 0 133 56" fill="none" xmlns="http://www.w3.org/2000/svg">
<path fill-rule="evenodd" clip-rule="evenodd" d="M87.2783 45.1494C84.5225 45.8173 81.6953 46.1404 78.8609 46.1114C71.687 46.1114 67 42.3595 67 35.5291C67 28.9873 71.4 24.7544 77.8087 24.7544C79.1484 24.7 80.4846 24.9294 81.7304 25.4278V16H87.2783V45.1494ZM81.7304 30.238C80.6391 29.7836 79.4681 29.5546 78.287 29.5646C76.7585 29.4513 75.2566 30.0128 74.1729 31.1028C73.0892 32.1928 72.5309 33.7032 72.6435 35.2405C72.6435 39.0886 75.0348 41.3013 79.0522 41.3013C79.9491 41.3264 80.8462 41.262 81.7304 41.1089V30.238ZM124.487 46.1114C127.353 46.1461 130.213 45.8229 133 45.1494V16H127.357V25.4278C126.113 24.922 124.775 24.6923 123.435 24.7544C117.026 24.7544 112.626 28.9873 112.626 35.5291C112.626 42.3595 117.409 46.1114 124.487 46.1114ZM127.357 30.238C126.299 29.7829 125.159 29.5536 124.009 29.5646C120.565 29.5646 118.365 31.681 118.365 35.2405C118.365 39.0886 120.852 41.3013 124.774 41.3013C125.671 41.3233 126.568 41.2589 127.452 41.1089V30.238H127.357ZM99.4261 29.757C98.2905 29.7138 97.1564 29.8767 96.0783 30.238L96.1739 54H90.5304V26.5823C93.4246 25.4369 96.5072 24.8495 99.6174 24.8506C106.409 24.8506 111 28.6987 111 35.1443C111 42.2633 106.696 46.2076 99.4261 46.2076H99.1391V41.3975C102.583 41.3013 105.261 39.3772 105.261 35.2405C105.261 31.681 102.87 29.757 99.4261 29.757Z" fill="#3F3F42"/>
<path d="M1.82766 12.4075L25.9719 25.8893L26.299 47.272C26.299 47.272 26.4625 49.0689 24.3752 49.0689C22.2878 49.0689 22.1242 47.6143 22.1242 47.6143V29.4737L0 16.6194V41.7385L24.125 56L48 42.0048V16.7905L34.2926 24.9005C34.2926 24.9005 33.0613 25.9559 31.4068 24.3301C30.9695 23.9315 30.7433 23.3555 30.7941 22.7697C30.8449 22.1839 31.167 21.6543 31.6665 21.3351L47.0573 12.4075L24.125 0L1.82766 12.4075Z" fill="#D30032"/>
</svg>
