<svg width="128" height="54" viewBox="0 0 128 54" fill="none" xmlns="http://www.w3.org/2000/svg">
<path fill-rule="evenodd" clip-rule="evenodd" d="M122.437 27.3181C120.944 27.9519 119.981 29.4246 120 31.0464C119.992 32.1055 120.412 33.1231 121.165 33.8676C121.919 34.6121 122.941 35.0203 124 34.9992C125.622 34.9991 127.084 34.0195 127.7 32.5193C128.316 31.019 127.965 29.2951 126.812 28.155C125.658 27.0149 123.93 26.6843 122.437 27.3181ZM123.929 27.8877C125.708 27.8565 127.179 29.2674 127.222 31.0464C127.28 31.9256 126.962 32.7881 126.348 33.42C125.734 34.0519 124.881 34.3939 124 34.3612C122.221 34.3692 120.768 32.9393 120.748 31.1599C120.729 29.3805 122.149 27.9189 123.929 27.8877ZM123.144 33.3963V31.2175L123.907 31.2487C124.283 31.191 124.638 31.4369 124.716 31.8089C124.792 32.3328 124.896 32.8523 125.027 33.3652H125.852C125.683 32.9368 125.578 32.4858 125.541 32.0268C125.463 31.3576 125.308 30.9374 124.918 30.9374C125.411 30.8588 125.765 30.4236 125.743 29.9259C125.743 29.0544 125.214 28.603 124.187 28.603H122.444V33.3963H123.144ZM124.016 30.6106C124.701 30.6106 124.887 30.2371 124.887 29.9259C124.887 29.6146 124.701 29.2411 124.016 29.2411H123.144V30.6417L124.016 30.6106Z" fill="#EE7203"/>
<path d="M104.951 34L100.304 28.6136L95.7033 34H86L95.4835 23L86 12H96.0016L100.696 17.354L105.218 12H114.859L105.438 22.9513L115 34H104.951Z" fill="#EE7203"/>
<path d="M67 33V0H86V7.35393H75.0489V12.0506H86V19.1264H75.0489V25.6306H86V33H67Z" fill="#EE7203"/>
<path fill-rule="evenodd" clip-rule="evenodd" d="M59.0238 0V13.8166H58.9281C57.2788 11.9309 54.8373 10.914 52.3238 11.0659C47.3239 11.1036 42.9759 14.4715 41.7314 19.2706C40.2736 14.1385 35.3909 10.7171 30.0224 11.0659C25.6109 10.8142 21.4219 13.0055 19.1429 16.757V12.3306H9.045V7.58808H20.2117V0H0V33.7669H9.045V19.5393H18.074C17.795 20.6295 17.6556 21.7502 17.6593 22.8749C17.5997 26.1192 18.8917 29.2445 21.2311 31.5149C23.5705 33.7853 26.7505 35.0002 30.0224 34.8735C35.2099 35.19 39.981 32.0616 41.7155 27.2064H33.9626C33.1729 28.5895 31.6107 29.3541 30.0224 29.135C27.5368 29.0509 25.5564 27.0466 25.5238 24.5822H41.3167C41.8185 30.3662 46.6271 34.8523 52.4833 35C55.0495 34.9785 57.4387 33.7 58.8643 31.5854H59.0238V33.7669H67V0H59.0238ZM25.7471 19.6816C26.1232 17.6311 27.9194 16.1367 30.0224 16.1247C32.1752 16.0228 34.0507 17.5658 34.3455 19.6816H25.7471ZM50.5344 26.8434C51.4332 27.8855 52.7149 28.5284 54.0945 28.6292C57.3169 28.6292 58.7048 26.1156 58.7048 23.0804C58.7048 20.0452 57.285 17.1364 54.0945 17.1364C50.904 17.1364 49.3088 20.0452 49.3088 23.0804C49.1944 24.4465 49.6357 25.8013 50.5344 26.8434Z" fill="#482683"/>
<path d="M67 50V38H73.7449V38.8941H68.1162V43.3176H73.5057V44.2118H68.1162V49.1059H74V50H67Z" fill="#482683"/>
<path d="M75 51L78.336 46.8879L75.1781 43H76.4575L79.0486 46.185L81.5749 43H82.8543L79.6478 46.8879L83 51H81.7045L78.919 47.6056L76.2794 51H75Z" fill="#482683"/>
<path fill-rule="evenodd" clip-rule="evenodd" d="M83 54H84.0847H84.1186V49.9139C84.7266 50.7798 85.8324 51.2875 87 51.2367C89.7966 51.2367 91 49.2377 91 47.1212C91 45.0046 89.7966 43.0056 87 43.0056C85.8064 42.9388 84.6738 43.4698 84.0847 44.3726V43.182H83V45.5338V54ZM86.8475 43.7847C89 43.7847 89.7966 45.4456 89.7966 47.1212C89.7966 48.7968 88.8814 50.443 86.8475 50.443C84.8136 50.443 84.0847 48.9879 84.0847 47.1212C84.0847 45.2545 84.6949 43.7847 86.8475 43.7847Z" fill="#482683"/>
<path d="M95.5697 43.9148C94.2541 43.9148 93.7992 45.2351 93.7992 46.5993V51H93V45.4991C93 44.7363 93 43.9589 93 43.1814H93.7254V44.3109C94.0813 43.4564 94.8332 42.9413 95.6311 43.0054H96V43.9442C95.8322 43.9305 95.6637 43.9305 95.4959 43.9442L95.5697 43.9148Z" fill="#482683"/>
<path fill-rule="evenodd" clip-rule="evenodd" d="M101.253 51.1957C99.2135 51.1957 98.22 49.6079 98.22 47.6672H105C105 45.3898 104.163 43 101.235 43C98.3072 43 97 45.1652 97 47.6352C97 50.1051 98.2723 51.9816 101.113 51.9816C102.969 52.164 104.652 50.9692 104.93 49.2711H103.85C103.618 50.4141 102.516 51.2312 101.253 51.1957ZM103.78 46.8974H98.22C98.4466 44.8926 99.3704 43.7699 101.148 43.7699C102.926 43.7699 103.78 45.2133 103.78 46.8974Z" fill="#482683"/>
<path d="M109.438 52C107.478 52 106 51.1613 106 49.2742H107.158C107.125 49.8281 107.368 50.3663 107.82 50.741C108.271 51.1157 108.885 51.2877 109.491 51.2097C110.791 51.2097 111.807 50.6452 111.807 49.5C111.807 48.3548 110.613 48.1774 109.384 47.8871C107.87 47.5 106.232 47.0645 106.232 45.4032C106.232 43.7419 108.013 43 109.545 43C111.076 43 112.786 43.6613 112.786 45.4032H111.646C111.655 44.9201 111.424 44.4588 111.017 44.1464C110.61 43.8339 110.069 43.7033 109.545 43.7903C108.583 43.7903 107.425 44.129 107.425 45.2581C107.425 46.3871 108.583 46.5806 109.83 46.871C111.076 47.1613 113 47.6452 113 49.3226C113 51.2742 111.344 51.9839 109.438 51.9839V52Z" fill="#482683"/>
<path d="M117.411 51.9839C115.457 51.9839 114 51.1467 114 49.263H115.137C115.104 49.8159 115.347 50.3531 115.797 50.7271C116.248 51.1012 116.859 51.2728 117.464 51.195C118.761 51.195 119.774 50.6315 119.774 49.4884C119.774 48.3453 118.584 48.1682 117.358 47.8784C115.848 47.4919 114.213 47.0572 114.213 45.3989C114.213 43.7406 115.99 43 117.518 43C119.046 43 120.734 43.644 120.787 45.4311H119.65C119.658 44.9488 119.428 44.4884 119.022 44.1765C118.616 43.8646 118.077 43.7342 117.553 43.8211C116.594 43.8211 115.439 44.1592 115.439 45.2862C115.439 46.4132 116.594 46.6064 117.838 46.8962C119.348 47.2665 121 47.6691 121 49.3435C121 51.2916 119.348 52 117.447 52L117.411 51.9839Z" fill="#482683"/>
</svg>
