<?xml version="1.0" encoding="utf-8"?>
<!-- Generator: Adobe Illustrator 26.1.0, SVG Export Plug-In . SVG Version: 6.00 Build 0)  -->
<svg version="1.1" id="Logo" xmlns="http://www.w3.org/2000/svg" xmlns:xlink="http://www.w3.org/1999/xlink" x="0px" y="0px"
	 viewBox="0 0 1014.6 391.7" style="enable-background:new 0 0 1014.6 391.7;" xml:space="preserve">
<style type="text/css">
	.st0{fill:#007BC4;}
</style>
<path class="st0" d="M912.4,104.4c0-16.6-13.5-29.4-30.1-29.4s-30.1,12.7-30.1,29.4s13.5,29.4,30.1,29.4S912.4,121,912.4,104.4"/>
<polygon class="st0" points="95.5,76.5 95.5,114.3 118,114.3 118,278 95.5,278 95.5,315.7 300.4,315.7 300.4,252.2 259.8,252.2 
	259.8,278 162.1,278 162.1,213.8 250.9,213.8 250.9,177.8 162.1,177.8 162.1,114.3 259.8,114.3 259.8,140 300.4,140 300.4,76.5 "/>
<polygon class="st0" points="509.2,76.5 443.7,245.3 378.8,76.5 317.5,76.5 412.9,316.8 439.1,316.8 534.2,76.5 "/>
<path class="st0" d="M586.2,191.7v-86H714c21.4,0,33.6,3.6,41.9,11.2c7.4,6.8,11.6,16.6,11.6,29.7c0,13.5-3.7,24.6-11.2,32.5
	c-7.8,8.2-19.5,12.6-41.5,12.6H586.2z M824.9,315.7L740.4,218c36-3.7,63.1-29.7,63.1-71.8c0-21.3-6.4-37.6-18.5-49
	c-15-14.1-36.5-20.7-71-20.7H551.4v239.2h34.9v-94.8h115.2l80.6,94.8H824.9z"/>
<path class="st0" d="M908.4,283.5c0,14,5.8,19.7,18.7,26.2v6h-87.2v-6c12.9-6.5,18.7-12.2,18.7-26.2v-91.6
	c0-12.4-2.2-19.2-18.7-30.2v-6h68.5V283.5z"/>
</svg>
