<svg width="145" height="32" viewBox="0 0 145 32" fill="none" xmlns="http://www.w3.org/2000/svg">
<path d="M144.138 0V31.947H0V0H144.138Z" fill="#FFCC00"/>
<path d="M24.9957 5.80859L20.3831 12.2281C20.3831 12.2281 44.3121 12.2281 45.5353 12.2281C46.8095 12.2281 46.784 12.7239 46.1724 13.585C45.5353 14.4723 44.4905 15.9858 43.8534 16.8731C43.5221 17.3167 42.936 18.1518 44.8982 18.1518C46.9624 18.1518 55.1936 18.1518 55.1936 18.1518C55.1936 18.1518 56.85 15.8293 58.2516 13.8982C60.1374 11.2625 58.4045 5.80859 51.6514 5.80859C45.5608 5.80859 24.9957 5.80859 24.9957 5.80859Z" fill="#D3072A"/>
<path d="M18.9272 26.1386L28.2415 13.7954C28.2415 13.7954 38.5537 13.7954 39.7819 13.7954C41.0614 13.7954 41.0358 14.2701 40.4216 15.0947C39.7819 15.9442 38.7072 17.3684 38.0675 18.218C37.7348 18.6427 37.1463 19.4423 39.1166 19.4423C41.1893 19.4423 54.5977 19.4423 54.5977 19.4423C53.3183 21.1663 49.1474 26.1386 41.6499 26.1386C35.5342 26.1386 18.9272 26.1386 18.9272 26.1386Z" fill="#D3072A"/>
<path d="M72.069 18.8777L67.0687 25.4123H53.8698L58.8701 18.8777H72.069Z" fill="#D3072A"/>
<path d="M92.2797 17.4257H59.6935L68.6272 5.80859H81.9381L76.8185 12.4786H82.7829L87.8769 5.80859H101.188L92.2797 17.4257Z" fill="#D3072A"/>
<path d="M90.9962 18.8777L85.9959 25.4123H72.797L77.7973 18.8777H90.9962Z" fill="#D3072A"/>
<path d="M0 21.782H19.6552L18.5789 23.2341H0V21.782Z" fill="#D3072A"/>
<path d="M0 18.8777H21.8391L20.7536 20.3298H0V18.8777Z" fill="#D3072A"/>
<path d="M0 24.6863H17.4713L16.4063 26.1384H0V24.6863Z" fill="#D3072A"/>
<path d="M144.138 23.2341H124.483L125.539 21.782H144.138V23.2341Z" fill="#D3072A"/>
<path d="M144.138 26.1384H123.027L124.081 24.6863H144.138V26.1384Z" fill="#D3072A"/>
<path d="M127.736 18.8777H144.138V20.3298H126.667L127.736 18.8777Z" fill="#D3072A"/>
<path d="M118.659 5.80859L109.923 18.1518H96.092L104.828 5.80859H118.659Z" fill="#D3072A"/>
<path d="M95.2663 18.8777C95.2663 18.8777 94.3036 20.1456 93.8223 20.7552C92.1756 22.9009 93.6196 25.4123 99.041 25.4123C105.273 25.4123 120.22 25.4123 120.22 25.4123L125.211 18.8777H95.2663Z" fill="#D3072A"/>
</svg>
