<svg width="147" height="57" viewBox="0 0 147 57" fill="none" xmlns="http://www.w3.org/2000/svg">
<rect width="146.782" height="50.4537" fill="#E30613"/>
<rect y="50.4536" width="146.782" height="5.78977" fill="#004B93"/>
<path d="M35.6589 13.5651C35.6498 13.4394 35.6275 13.3149 35.5922 13.1934C35.493 12.8221 35.1987 12.525 34.8129 12.4067C35.0546 13.1934 34.6462 13.9899 34.4629 14.3026C33.8799 15.2283 32.9704 15.9308 31.8938 16.2871C30.977 16.5388 29.6247 16.466 29.6247 16.466L28.0224 19.0444H27.837L27.3661 19.7976L28.8059 19.8507L30.4061 17.2724C31.1353 17.3077 31.8663 17.2548 32.5814 17.115L35.6568 13.575L35.6589 13.5651Z" fill="#9C1006"/>
<path d="M31.181 16.4304L32.3191 14.2079L33.1498 14.1891C33.3097 13.3062 32.5163 13.2336 32.5163 13.2336L31.534 13.2547L29.8539 16.5334C30.2984 16.56 30.744 16.5254 31.181 16.4304Z" fill="#9D0F11"/>
<path d="M110.114 32.6787L107.856 32.5133L107.806 32.8207L111.015 33.0844L111.123 32.326L110.177 32.2573L110.114 32.6787Z" fill="#9C1006"/>
<path d="M109.464 27.3544L108.395 27.2947L107.806 31.3462L108.881 31.4302L109.464 27.3544Z" fill="#9C1006"/>
<path d="M93.4904 24.7933C97.1781 24.502 99.1398 23.0701 100.26 21.1961L101.172 14.2869C100.883 13.5683 100.448 12.9262 99.8976 12.4067C100.49 13.5798 100.679 14.9346 100.433 16.2394C99.773 19.6155 98.2203 22.8904 92.4228 23.3511C90.8975 23.473 89.1422 23.0247 87.9033 21.8883C88.9611 24.0908 91.4351 24.9606 93.4904 24.7933Z" fill="#9C1006"/>
<path d="M90.8769 19.0235C90.6036 18.299 90.5755 17.3714 90.9231 16.2095C91.6425 13.8016 93.5355 12.2432 96.4573 12.1221C97.2408 12.0567 98.0243 12.2471 98.6839 12.663C98.2096 11.5597 97.2129 10.6809 95.3521 10.757C92.4222 10.8801 90.5292 12.4385 89.8179 14.8581C89.1929 16.9535 89.7757 18.301 90.8769 19.0235Z" fill="#9C1006"/>
<path d="M87.107 16.4077H83.21L81.628 21.8775L80.7914 21.8409L80.4398 23.0433L82.8733 23.1591L84.466 17.7056H87.7063C87.6799 17.0366 87.7461 16.3673 87.9033 15.7151H87.2912L87.107 16.4077Z" fill="#9C1006"/>
<path d="M89.5618 10.7524L88.0007 10.794L87.8784 11.2434L83.7113 11.3794L82.9276 14.0609H84.5115L84.9386 12.5993L88.3345 12.4879C88.6575 12.0954 89.013 11.7261 89.398 11.3832L89.5618 10.7524Z" fill="#9C1006"/>
<path d="M60.5637 20.4834L56.79 20.3409L56.3907 21.2495L61.5968 21.5048L62.1957 19.9079L60.8002 19.8506L60.5637 20.4834Z" fill="#9C1006"/>
<path d="M59.4635 18.1965L60.5913 15.4649L59.8535 15.2229L60.7835 15.0027L62.1957 11.5796L60.7316 11.6014L58.0493 18.1401L59.4635 18.1965Z" fill="#9C1006"/>
<path d="M55.9292 19.8738L55.2761 19.8506L54.9932 20.5038L51.0431 20.3395L50.5858 21.242L55.9781 21.5048L56.3907 20.5637L55.625 20.5347L55.9292 19.8738Z" fill="#9C1006"/>
<path d="M55.8361 13.7791L58.2567 13.7235L58.8786 12.4067L58.0548 12.43L57.8978 12.7579L54.8859 12.8313L53.903 14.8881L55.31 14.8755L55.8361 13.7791Z" fill="#9C1006"/>
<path d="M53.5849 19.0235L54.3343 17.2614L56.6232 17.2572L57.22 15.7151L56.1789 15.7255L56.0225 16.1551L53.4361 16.1613L52.2444 18.9654L53.5849 19.0235Z" fill="#9C1006"/>
<path d="M50.0476 19.8506C49.8521 19.9046 49.6531 19.9496 49.4517 19.9854L49.3672 20.1583C49.3672 20.1583 47.134 21.0471 45.6102 20.3416C46.8247 22.4493 50.3363 21.0488 50.3363 21.0488L50.5858 20.5422L49.693 20.5093L50.0476 19.8506Z" fill="#9C1006"/>
<path d="M46.4694 17.9211C46.577 18.4291 46.9497 18.8466 47.4537 19.0236C47.4537 18.9959 47.4353 18.9681 47.4291 18.9423C47.2138 18.0342 48.1263 15.9898 49.9165 14.6335C51.3909 13.5251 52.5147 13.7254 53.1791 14.0585L53.9029 12.5178C53.7529 12.4698 53.5993 12.4327 53.4436 12.4067L52.8961 13.531C52.8961 13.531 51.6308 12.0419 49.5207 13.2415C49.2044 13.4384 48.9048 13.6592 48.6246 13.9018L48.5467 13.9712C48.1812 14.3035 47.8438 14.6636 47.5378 15.0479C46.7134 16.1465 46.3238 17.2965 46.4694 17.9211Z" fill="#9C1006"/>
<path d="M43.9307 13.402C44.0098 12.9301 43.8829 12.499 43.2295 12.4067L42.0664 12.4668L40.6345 15.6971C41.0395 15.7375 41.4473 15.7101 41.8455 15.6156L42.8025 13.4535L43.9307 13.402Z" fill="#9C1006"/>
<path d="M46.4395 13.2837C46.3418 12.8836 46.0619 12.5568 45.6883 12.4067C45.7668 12.8504 45.7239 13.3079 45.5644 13.728C45.3522 14.3712 44.6367 16.239 42.3194 16.6118L43.232 19.7507L42.2931 19.7236L42.4715 20.5928L43.9963 20.6778L43.0762 17.5081C43.6035 17.4281 44.1106 17.2431 44.5691 16.9634C44.7851 15.7967 45.54 14.3789 46.4395 13.2837Z" fill="#9C1006"/>
<path d="M38.7887 19.7747L38.6197 19.7688L38.1467 20.6012L39.6512 20.6777L41.4638 17.4563L41.0765 15.7151L38.7887 19.7747Z" fill="#9C1006"/>
<path d="M61.3665 17.0944L66.3257 18.744L66.3804 18.4115L66.5994 18.8335L67.1714 19.0235L66.2841 17.0633L66.9977 16.4915L66.7202 15.9745L67.0676 15.7151L65.3176 16.1389L66.1331 17.9439L62.6445 16.7856L61.3665 17.0944Z" fill="#9C1006"/>
<path d="M73.0335 13.2338L73.8056 5.78979L72.5306 8.37546L72.147 12.0671L72.7128 13.1294L73.0335 13.2338Z" fill="#9C1006"/>
<path d="M72.147 12.3714L71.5027 11.5796L70.4885 12.9277L70.7171 13.2338L72.147 12.3714Z" fill="#9D0F11"/>
<path d="M68.0007 20.434L67.4006 19.8506L67.1714 20.5477L67.3062 20.6777L68.0007 20.434Z" fill="#9D0F11"/>
<path d="M68.592 21.5123L66.9666 24.2151L66.3421 28.1217L71.3178 19.8506L68.7048 21.7422L68.592 21.5123Z" fill="#9C1006"/>
<path d="M80.4398 16.3544L78.3277 15.7151L74.7722 16.6829L72.147 19.0235L80.326 16.7989L80.4398 16.3544Z" fill="#9C1006"/>
<path d="M72.9763 16.3948L71.5628 14.0608L71.253 14.2915L72.0757 15.6349L68.83 17.9359L69.4249 19.0176L70.5964 18.2112L70.0835 19.0235L72.328 17.4358L71.3042 17.6762L72.9763 16.3948Z" fill="#9C1006"/>
<path d="M97.24 29.6782C96.9364 29.3571 96.8163 28.9203 96.9167 28.503C97.0085 28.035 97.2738 27.6118 97.6663 27.3071C98.1677 26.8885 98.8592 26.728 99.5131 26.8784C99.2123 26.6102 98.8102 26.463 98.3937 26.4685C97.8732 26.4533 97.3665 26.6257 96.9793 26.9498C96.5892 27.2565 96.3245 27.6788 96.2297 28.1457C96.1311 28.5639 96.2519 29.0008 96.555 29.3228C96.77 29.5453 97.0514 29.7031 97.3632 29.776C97.3208 29.744 97.2804 29.7158 97.24 29.6782Z" fill="#9C1006"/>
<path d="M99.7761 26.4675C99.8773 26.5554 99.9702 26.6542 100.054 26.7625C100.465 27.2673 100.649 27.9489 100.557 28.62C100.482 29.3334 100.15 29.9832 99.6347 30.4222C99.1168 30.8721 98.4695 31.1011 97.8113 31.0674C97.5426 31.0548 97.2774 30.9957 97.0253 30.8923C97.4198 31.2318 97.904 31.4196 98.4041 31.4271C99.062 31.46 99.7089 31.2318 100.228 30.7838C100.742 30.3445 101.074 29.6947 101.148 28.9816C101.241 28.3101 101.057 27.6279 100.646 27.1222C100.416 26.8207 100.115 26.5943 99.7761 26.4675V26.4675Z" fill="#9C1006"/>
<path d="M114.52 27.2947C115.036 27.8067 115.371 28.5758 115.288 29.7252C115.077 32.4546 112.929 32.651 111.553 32.4984L111.162 32.4546L111.123 32.9081L112.352 33.0481C113.721 33.1965 115.873 33.0042 116.085 30.2727C116.212 28.5988 115.445 27.7315 114.52 27.2947Z" fill="#9C1006"/>
<path d="M111.123 31.3506L111.435 31.3976C111.598 31.4139 111.762 31.4241 111.921 31.4302L112.231 27.8318L112.497 27.8543C112.876 27.8707 113.251 27.9456 113.611 28.0769C113.128 27.4907 112.311 27.3559 111.743 27.3171L111.474 27.2947L111.123 31.3506Z" fill="#9C1006"/>
<path d="M105.304 29.1165C105.39 28.225 105.084 27.5742 104.476 27.2947C104.725 27.6782 104.829 28.1793 104.762 28.6677C104.677 29.5653 104.289 30.161 103.66 30.3242L104.728 32.6009L104.13 32.5275L104.314 32.9518L105.276 33.0844L104.201 30.7812C104.833 30.6017 105.22 30.0141 105.304 29.1165Z" fill="#9C1006"/>
<path d="M104.489 27.8085C104.379 27.5309 104.129 27.3813 103.765 27.3577L102.844 27.2947L102.264 31.8223L102.047 31.7987L102.001 32.1609L102.912 32.2573L103.197 30.0624L102.645 29.0723C102.865 29.1067 103.087 29.1218 103.309 29.1175L103.489 27.7297L104.409 27.7947C104.436 27.7974 104.463 27.802 104.489 27.8085Z" fill="#9C1006"/>
<path d="M117.112 20.6778C116.82 20.0233 116.632 19.3174 116.556 18.5913C116.238 15.7742 119.072 13.5526 120.267 13.1789C123.211 12.256 125.337 13.4492 126.05 13.9454L126.02 11.0819C125.704 10.9477 125.381 10.8376 125.052 10.7524V12.3299C125.052 12.3299 122.657 10.2182 119.014 11.3649C117.819 11.7365 114.981 13.9581 115.293 16.7773C115.435 18.288 116.085 19.6823 117.112 20.6778Z" fill="#9C1006"/>
<path d="M127.407 23.0702L127.385 21.0923C127.059 21.2578 126.721 21.4014 126.374 21.5221V22.1574C121.86 24.1942 117.695 22.9428 115.269 20.6777C117.198 23.8595 122.199 26.2748 127.709 23.7815V23.0817L127.407 23.0702Z" fill="#9C1006"/>
<path d="M137.66 26.4676L137.508 23.216L136.296 23.1592L136.356 24.4466L127.708 23.978L127.728 25.8405L137.66 26.4676Z" fill="#9C1006"/>
<path d="M129.459 14.0608H130.79L130.741 12.333L136.831 12.2091L136.655 9.92529L135.404 9.95893L135.459 10.6936L129.367 10.8193L129.459 14.0608Z" fill="#9C1006"/>
<path d="M137.549 15.7151H136.223L136.264 16.7262L130.196 16.6897L130.353 21.4512L131.69 21.5049L131.592 18.5252L137.66 18.5638L137.549 15.7151Z" fill="#9C1006"/>
<path d="M38.7127 17.2471L39.8053 12.4067L38.8251 12.4288L37.1874 19.7775L36.7046 19.7615L36.4882 20.6157L37.9386 20.6778L38.1301 19.8237L37.3351 19.7956L38.7127 17.2471Z" fill="#9C1006"/>
<path d="M34.8296 16.5265L36.5435 16.5421L37.3174 13.2336L34.8296 16.5265Z" fill="#9D0F11"/>
<path d="M33.6805 17.3694L32.2042 19.7304L32.0725 19.7238L31.5125 20.5947L32.8625 20.6778L34.3388 18.319L35.4851 18.3737L35.6589 17.4613L33.6805 17.3694Z" fill="#9C1006"/>
<path d="M107.616 10.7524C106.684 10.7524 104.645 10.8686 104.645 10.8686L103.003 22.5167L102.213 22.4826L102.001 23.8421L104.913 23.9862L105.742 18.1802L103.996 15.6996C104.705 15.7364 105.417 15.6988 106.118 15.5875L106.585 12.3181C106.585 12.3181 108.495 12.212 109.464 12.1979C109.251 11.3859 108.502 10.7998 107.616 10.7524Z" fill="#9C1006"/>
<path d="M110.427 19.2229C111.252 18.904 112.025 18.4586 112.72 17.9016C112.649 17.5829 112.606 17.2583 112.592 16.9316C112.536 14.9358 112.993 13.399 113.707 12.2074C113.285 11.5241 112.649 11.0105 111.903 10.7524C112.342 11.4749 112.584 12.4829 112.402 13.9279C112.173 15.7661 110.703 16.9396 108.635 17.7779L112.574 23.2565L110.078 23.1428L111.038 24.6297L114.44 24.8133L110.427 19.2229Z" fill="#9C1006"/>
<path d="M135.283 29.6471L138.489 29.8441L138.423 28.9971L137.599 28.9487L137.621 29.2132L134.343 29.0161L134.431 30.539L135.34 30.603L135.283 29.6471Z" fill="#9C1006"/>
<path d="M138.433 32.3136L137.495 32.2573L137.514 32.513L134.343 32.3212L134.445 33.8446L135.387 33.9115L135.318 32.8797L138.489 33.07L138.433 32.3136Z" fill="#9C1006"/>
<path d="M138.422 35.6297L137.572 35.5657L137.597 35.8703L134.343 35.6283L134.371 36.0711L138.489 36.3928L138.422 35.6297Z" fill="#9C1006"/>
<path d="M130.936 28.9487C131.444 29.4537 131.798 30.179 131.789 31.227C131.76 33.7673 129.415 34.2286 128.113 34.0995L127.708 34.0596V34.5893L129.01 34.7184C130.31 34.8494 132.658 34.3881 132.684 31.8516C132.705 30.253 131.882 29.4063 130.936 28.9487Z" fill="#9C1006"/>
<path d="M127.943 33.0538C128.167 33.0785 128.393 33.0882 128.618 33.0829L128.557 29.5422H128.693C129.207 29.5583 129.715 29.6577 130.196 29.8362C130.112 29.7344 130.017 29.642 129.912 29.5603C129.472 29.2101 128.893 29.0159 127.844 28.9487H127.708L127.778 33.0429L127.943 33.0538Z" fill="#9C1006"/>
<path d="M125.323 28.1218L125.355 34.0663L125.221 34.05V34.6351L126.05 34.7387L126.021 28.1787L125.323 28.1218Z" fill="#9C1006"/>
<path d="M121.904 32.6088L122.431 33.9116L125.221 28.1965L124.075 28.1218L121.904 32.6088Z" fill="#9C1006"/>
<path d="M120.651 27.2947L120.245 27.9815L121.508 30.6031L121.904 29.8689L120.651 27.2947Z" fill="#9C1006"/>
<path d="M118.586 32.6078L119.026 33.9114L120.245 31.0519L119.798 29.7759L118.586 32.6078Z" fill="#9C1006"/>
<path d="M117.691 27.3423L116.928 27.2947L118.162 30.6031L118.586 29.7672L117.691 27.3423Z" fill="#9C1006"/>
<path d="M90.0671 25.6816L89.5618 25.6404L90.0051 28.1217L90.3911 27.3818L90.0671 25.6816Z" fill="#9C1006"/>
<path d="M92.4294 25.6404L92.0497 26.2504L92.5172 28.1217L92.879 27.3788L92.4294 25.6404Z" fill="#9C1006"/>
<path d="M92.8789 30.3259L93.2027 31.4302L96.196 26.5183L95.2486 26.4675L92.8789 30.3259Z" fill="#9C1006"/>
<path d="M90.3911 29.527L90.623 30.6031L92.0497 28.3168L91.7844 27.2947L90.3911 29.527Z" fill="#9C1006"/>
<path fill-rule="evenodd" clip-rule="evenodd" d="M121.063 46.8905C122.951 48.011 124.807 49.1915 126.629 50.4321H127.709C115.347 41.9127 101.351 35.9684 86.5769 32.9631C67.7862 29.0768 48.2981 30.0021 29.9735 35.6506C29.7984 35.7045 29.6344 35.7609 29.4688 35.8178L29.4688 35.8178L29.3334 35.8641C22.6883 37.9571 16.256 40.657 10.1204 43.9287L10.0886 43.9424C6.61907 45.7971 3.25151 47.8313 0 50.0364V50.44H0.518841C3.70383 48.2869 6.99952 46.2973 10.3927 44.4792C14.4789 42.7058 18.6681 41.1726 22.9384 39.8876C22.211 40.8793 21.7129 42.016 21.4792 43.2177C20.9942 45.4645 21.2327 47.8856 22.1671 50.4439H23.0397C22.0756 47.9287 21.8152 45.5585 22.2883 43.392C22.5559 41.9376 23.237 40.5878 24.2524 39.4998C30.2657 37.7661 36.4119 36.5162 42.6305 35.7623C42.5521 35.9529 42.4896 36.1494 42.4436 36.3499C42.0341 38.2402 42.5033 40.2676 43.7338 42.346C36.6197 44.4731 29.6977 47.1805 23.0397 50.44H24.4511C30.7757 47.4136 37.3338 44.8859 44.0637 42.8807C45.7117 45.3959 48.5027 47.9738 52.2559 50.44H53.6328L53.6235 50.4458H54.866C60.7581 46.82 66.6403 43.8778 72.3595 41.6917C74.6336 42.5844 76.9564 43.3515 79.3171 43.9895C77.7646 45.9209 76.1087 48.0913 74.4686 50.4537H75.4626C75.6094 50.2441 75.7549 50.0362 75.8992 49.8299C77.3323 47.7817 78.6532 45.8938 80.0348 44.1853C81.3507 44.5321 82.7105 44.8553 84.1219 45.1452C85.3862 45.4077 86.5789 45.6329 87.8333 45.8249C88.1508 47.0327 88.4207 48.3008 88.7015 49.6205L88.7015 49.6208L88.7016 49.621L88.7016 49.6212L88.7016 49.6213L88.7017 49.6213L88.7017 49.6214L88.7021 49.6235C88.7604 49.8974 88.8192 50.1735 88.8789 50.4517H89.7536C89.5193 49.3543 89.22 48.2899 88.9312 47.263C88.8035 46.8088 88.6779 46.3619 88.5609 45.9228C91.032 46.278 93.5202 46.5062 96.0155 46.6065C97.244 47.819 98.4646 49.1021 99.6712 50.44H100.496C99.3134 49.1138 98.1107 47.8406 96.918 46.6339C99.1689 46.7059 101.422 46.6214 103.661 46.3812C105.849 47.6506 108.015 49.0035 110.159 50.44H111.259C109.081 48.963 106.881 47.5663 104.659 46.25C106.688 45.9542 108.352 45.4939 109.497 44.8788C113.62 46.5109 117.648 48.3668 121.562 50.438H122.886C118.756 48.2054 114.497 46.2143 110.13 44.4753C110.71 44.0521 111.086 43.5722 111.203 43.0335C111.237 42.8384 111.231 42.6384 111.183 42.4459C113.678 43.3179 116.115 44.3445 118.479 45.5193L121.063 46.8905ZM71.5285 41.3626C65.2859 43.8247 59.294 46.864 53.6332 50.4398C49.586 47.8933 46.5665 45.2528 44.8092 42.6633C51.6053 40.6818 58.5612 39.278 65.6006 38.4675C67.5031 39.5722 69.4842 40.5398 71.5285 41.3626ZM108.122 40.3303C108.655 40.5779 109.154 40.8898 109.609 41.2588C101.49 38.6496 94.0435 37.9444 88.3601 37.5252C92.7494 36.9729 97.1386 36.9376 100.773 37.4939C103.268 38.3597 105.72 39.3078 108.128 40.3382L108.122 40.3303ZM98.2656 36.6597L98.2896 36.6614L98.2956 36.6692L98.2656 36.6597ZM98.2656 36.6597C94.352 36.3822 90.4189 36.553 86.5451 37.1687C87.4357 36.3852 88.9306 35.1296 90.1233 34.3832C92.8789 35.0507 95.5929 35.8095 98.2656 36.6597ZM86.4557 33.5703C87.4118 33.7662 88.3641 33.9778 89.3103 34.1991C88.0456 35.1069 86.8331 36.0833 85.6784 37.1237C85.0591 35.7144 84.3589 34.341 83.5812 33.0101C84.5413 33.1786 85.4995 33.3744 86.4557 33.5703ZM84.8713 36.8396C84.3823 35.778 83.5335 34.0307 82.7641 32.8789V32.8749C79.9016 32.38 77.037 31.9987 74.1705 31.731C77.9245 33.0238 81.515 34.738 84.8713 36.8396ZM63.4 31.2334C66.0221 31.2334 68.6501 31.3137 71.2781 31.4939C74.9557 32.4283 79.2933 34.2775 83.112 36.4929C77.5459 34.6927 69.3538 32.5008 62.3743 31.4606C62.7071 31.3486 63.0509 31.2711 63.4 31.2295V31.2334ZM61.4718 31.9131C61.1159 32.1658 60.9012 32.4381 60.8555 32.6536V32.6497C60.7661 33.0708 60.9112 33.5703 61.2948 34.1482C61.3156 34.1783 61.3411 34.2101 61.3664 34.2418L61.3665 34.2419C61.3874 34.2679 61.4081 34.2939 61.426 34.3186C67.8632 34.5275 74.2758 35.2058 80.6113 36.348C75.0054 34.6418 67.674 32.7731 61.4718 31.9131ZM56.341 31.4528C57.6689 31.492 59.1241 31.6193 60.6627 31.8132C60.4644 32.0104 60.3225 32.2557 60.2512 32.5243C60.1339 33.0591 60.283 33.6585 60.6667 34.3029C55.0374 34.1614 49.4049 34.4029 43.8093 35.0258C44.5269 33.9072 45.7117 32.7652 47.0277 32.4342C50.1156 31.9771 53.22 31.6487 56.341 31.4489V31.4528ZM17.0542 41.2098C19.2468 40.4146 21.4693 39.6741 23.6977 39.0199C24.0753 38.65 24.4836 38.3119 24.9183 38.0091C22.2585 38.9768 19.6371 40.0437 17.0542 41.2098ZM25.2682 38.5889C26.4413 37.7251 27.7428 37.0452 29.1267 36.5732C34.342 34.9081 39.6748 33.6235 45.0816 32.73C44.2037 33.3667 43.4733 34.1799 42.9386 35.1159C36.9663 35.8223 31.0585 36.9834 25.2682 38.5889ZM43.1473 36.4929C42.7696 38.2344 43.2547 40.1501 44.4713 42.1266C51.1012 40.1789 57.8841 38.7781 64.7498 37.9386C63.0899 36.873 61.8495 35.8446 61.102 34.9141C55.2055 34.7451 49.3044 34.9998 43.4455 35.6761C43.3146 35.9362 43.2145 36.2103 43.1473 36.4929ZM61.9509 34.9552C68.52 35.1951 75.0611 35.9265 81.5177 37.1433C76.2571 37.0058 70.9932 37.2362 65.7656 37.8328C64.0918 36.8338 62.7957 35.8543 61.9509 34.9552ZM83.0623 37.825C77.5893 37.5967 72.1066 37.7722 66.6602 38.3499C68.5061 39.3603 70.4158 40.2534 72.3774 41.0238C75.8531 39.6963 79.4247 38.6271 83.0623 37.825ZM79.7505 43.4645C77.5498 42.8699 75.3809 42.1665 73.2521 41.3568C76.9504 39.976 80.7574 38.8963 84.6348 38.1286C82.9115 39.8203 81.2811 41.6015 79.7505 43.4645ZM80.48 43.6545C81.7006 43.9738 82.9609 44.2735 84.2571 44.5399C85.4438 44.7808 86.5332 44.9924 87.6663 45.1726C86.9666 42.5556 86.2748 40.2304 85.4597 38.1893C83.6949 39.9155 82.0323 41.7403 80.48 43.6545ZM88.4118 45.2823C87.8079 42.9736 87.0779 40.6986 86.2251 38.4675C89.475 40.7164 92.5278 43.23 95.3515 45.9816C93.1907 45.87 90.8628 45.6447 88.4118 45.2784V45.2823ZM87.7756 38.7965C90.7911 40.9893 93.6339 43.4036 96.2799 46.0188V46.0149C98.4236 46.0963 100.57 46.0407 102.707 45.8484C97.9195 43.126 92.9279 40.7685 87.7756 38.7965ZM103.748 45.7387C99.1499 43.0751 94.3611 40.7445 89.4196 38.7652C95.9764 40.2161 102.412 42.1557 108.67 44.5673C107.494 45.0668 105.82 45.4743 103.748 45.7348V45.7387ZM90.0518 38.2716C96.6478 39.7604 103.119 41.7419 109.41 44.1991V44.1951C110.086 43.8014 110.501 43.3646 110.607 42.9062C110.635 42.6555 110.576 42.4027 110.44 42.1893C102.798 39.5977 95.6934 38.7319 90.0518 38.2716Z" fill="white"/>
<path fill-rule="evenodd" clip-rule="evenodd" d="M31.8396 16.2914C30.9239 16.5414 29.5732 16.4691 29.5732 16.4691L27.9708 19.0236H27.7855L26.5369 18.9748L31.1341 11.6727L33.4233 11.5848C34.0297 11.5314 34.5901 11.8921 34.7553 12.4422C34.9967 13.2233 34.5888 14.0045 34.4056 14.3209C33.8233 15.2401 32.9149 15.9376 31.8396 16.2914ZM31.902 12.6629L30.2184 15.397C30.6653 15.4182 31.1133 15.388 31.5524 15.3071C31.5649 15.3044 31.5773 15.3007 31.5896 15.297C31.6122 15.2903 31.6341 15.2837 31.6544 15.2837C32.3271 15.0618 32.8951 14.6249 33.2589 14.0494C33.3717 13.8574 33.4597 13.6536 33.5211 13.4421C33.6814 12.7058 32.8864 12.6453 32.8864 12.6453L31.902 12.6629Z" fill="white"/>
<path d="M109.421 31.7334L109.464 31.3512L108.252 31.2406L107.301 31.1533L107.822 26.941L107.876 26.5199L106.845 26.4675L106.147 31.9643L107.092 32.0516L109.358 32.2573L109.421 31.7334Z" fill="white"/>
<path fill-rule="evenodd" clip-rule="evenodd" d="M101.89 15.5477C101.197 18.7605 99.5688 21.8769 93.4876 22.3154C91.8856 22.4235 90.0444 22.0047 88.7469 20.9233C87.7188 20.0713 87.1131 18.8407 87.0794 17.5355C87.0539 16.888 87.1178 16.24 87.2695 15.6086C87.3308 15.3393 87.3962 15.066 87.4881 14.7789C87.7603 14.0369 88.1512 13.3403 88.6467 12.7144C88.9651 12.3057 89.3155 11.9212 89.695 11.5641C91.2596 10.0578 93.3599 9.17869 95.5719 9.1044C98.5451 8.99822 100.413 10.2566 101.328 11.8945C101.951 13.0125 102.149 14.3041 101.89 15.5477ZM95.3839 10.9939C92.4128 11.1237 90.4879 12.6927 89.7563 15.123C89.1188 17.2386 89.7114 18.5953 90.8311 19.3228C91.6377 19.8028 92.5802 20.0277 93.5264 19.9658C97.2945 19.8301 98.6697 17.2563 98.9762 16.1277C99.2491 15.061 99.1778 13.9397 98.7719 12.913C98.2896 11.802 97.2761 10.9173 95.3839 10.9939Z" fill="white"/>
<path d="M82.7306 16.8149L86.5493 16.819L86.7298 16.1286L87.0744 14.8134L84.9015 14.8175L83.3159 14.8195L84.0942 11.9186L88.2718 11.7711L88.3943 11.2836L88.7326 9.92529L82.1931 10.1629L80.2008 17.2103L80.0825 17.6262L78.7812 22.2275L80.3606 22.2951L81.1804 22.3319L82.7306 16.8149Z" fill="white"/>
<path d="M60.8708 11.8082L61.2755 10.7524L59.5406 10.8034L59.0991 11.8729L58.5085 13.3126L57.5656 15.6025L56.9673 17.0579L55.8384 19.7983L55.5615 20.4682L56.2586 20.4976L56.9982 20.5269L60.7681 20.6778L61.0044 20.0078L61.3665 18.9834L59.5928 18.907L58.1677 18.8463L60.8708 11.8082Z" fill="white"/>
<path d="M55.1871 19.993L55.5817 18.98L53.7979 18.907L52.3864 18.8503L53.6413 16.1132L56.3647 16.1071L56.5295 15.6878L56.9586 14.5998L55.6773 14.612L54.2739 14.6261L55.2542 12.3003L58.2583 12.2172L58.4149 11.8465L58.8786 10.7524L54.099 10.9247L53.5579 12.1119L52.84 13.6861L50.1064 19.6749L49.7566 20.4427L50.6373 20.4812L51.1396 20.5056L54.9166 20.6778L55.1871 19.993Z" fill="white"/>
<path d="M49.4454 20.1332L49.5232 19.9259L50.1563 18.2468C48.7725 18.991 47.8815 19.047 47.3261 18.8272C46.8602 18.6422 46.5157 18.2057 46.4162 17.6746C46.2816 17.0216 46.6418 15.8089 47.4038 14.6708C47.681 14.2638 47.9933 13.8868 48.3365 13.5452L48.4085 13.4726C48.5128 13.371 48.5981 13.2653 48.7156 13.1679C48.8813 13.0267 49.0554 12.8979 49.2369 12.7823C51.1875 11.5281 52.3571 13.085 52.3571 13.085L52.8632 11.9096L53.0736 11.4183C52.6945 10.7466 49.9421 9.9796 47.4797 12.4382C47.2187 12.7047 46.9736 12.9893 46.7461 13.2902C45.8381 14.4656 45.076 15.9851 44.8505 17.2393C44.7759 17.5948 44.7611 17.9622 44.8069 18.3235C44.9964 19.4118 45.44 20.0213 45.984 20.3488C47.3925 21.1987 49.4454 20.1332 49.4454 20.1332Z" fill="white"/>
<path d="M65.0387 16.1348L64.964 15.9575L67.1714 14.0608L60.6845 15.7405L59.7079 15.9929L60.4827 16.2705L62.1816 16.8735L65.9103 18.1963L65.0387 16.1348Z" fill="white"/>
<path d="M71.2623 13.2337L71.3132 12.7447L71.731 8.86068L72.1471 4.96265L68.0007 13.088L70.1335 11.1879L70.346 11.5691L70.8901 12.5551L71.2623 13.2337Z" fill="white"/>
<path d="M68.5838 19.2005L67.4369 20.0954L67.0489 20.3984L66.9736 20.2368L66.241 18.6632L66.0226 18.1965L65.9679 18.5642L64.6835 27.2947L66.3823 24.2465L68.0094 21.3256L69.1884 19.2065L69.6592 18.3602L68.5838 19.2005Z" fill="white"/>
<path d="M79.6105 15.2228L72.8862 13.4713L72.4839 13.3659L71.9825 13.2336L73.2239 15.2688L72.1362 16.1025L70.4885 17.3692L71.4973 17.1316L74.2671 16.48L77.8678 15.633L79.6105 15.2228Z" fill="white"/>
<path d="M127.033 21.564L127.055 23.5506L127.368 23.562L128.435 23.6079L137.66 23.9861L137.596 22.9469L137.496 21.3539L131.842 21.1514L130.511 21.1036L130.356 16.8668L136.392 16.8993L136.35 15.9996L136.276 14.3664H131.587H130.238L130.145 10.8688L136.319 10.7332L136.263 9.9405L136.143 8.271L126.879 8.59955L126.904 10.8727L126.937 13.4629L127.033 21.564Z" fill="white"/>
<path d="M68.3371 15.4046L69.6592 13.2336L66.7074 15.4429L66.3421 15.715L68.3371 15.4046Z" fill="white"/>
<path fill-rule="evenodd" clip-rule="evenodd" d="M38.976 11.5796L38.771 12.4785L37.1662 19.8507L36.6907 19.8346L35.7335 19.8004L36.0717 18.3927L36.2766 17.5542L33.9667 17.4697L32.243 19.6395H32.0893L30.6832 19.5933L32.3619 17.5823L32.452 17.4778L35.4773 13.858L37.3363 11.6258L38.976 11.5796ZM34.93 16.2571L36.623 16.2712L37.3896 13.2789L34.93 16.2571Z" fill="white"/>
<path fill-rule="evenodd" clip-rule="evenodd" d="M45.446 13.931C45.2311 14.5638 44.5065 16.4091 42.1596 16.7683L43.0744 19.8507L42.1234 19.8241L41.5281 19.8051L41.0394 17.4182L40.6951 15.7307L38.6621 19.6626H38.5118L38.044 19.6435L37.3174 19.6169L38.5765 17.2016L41.4559 11.6753L43.8884 11.5802C43.8884 11.5802 45.309 11.5175 45.5715 12.6311C45.651 13.0677 45.6075 13.5177 45.446 13.931ZM40.7085 15.7136C41.1269 15.7493 41.5483 15.725 41.9599 15.6413C43.0135 15.4927 43.8685 14.7145 44.1147 13.6802C44.1965 13.2621 44.0652 12.8801 43.3901 12.7984L42.1881 12.8516L40.7085 15.7136Z" fill="white"/>
<path d="M112.903 17.8859C113.24 19.2171 113.952 20.4247 114.954 21.3667C117.378 23.7329 121.531 25.0402 126.05 22.9124V22.2488L126.03 19.9124C125.36 20.3773 123.543 21.1044 121.864 21.1362C120.186 21.168 118.659 20.6594 117.531 19.7097C116.448 18.7761 115.76 17.4675 115.608 16.0482C115.279 13.3959 118.271 11.3058 119.53 10.9561C123.379 9.87932 125.902 11.8621 125.902 11.8621V10.372V9.11045C125.466 8.79456 122.713 8.15284 120.846 8.28993C119.751 8.36542 115.883 9.04688 113.931 12.2118C113.198 13.4038 112.735 14.9237 112.785 16.9144C112.795 17.2411 112.834 17.5663 112.903 17.8859Z" fill="white"/>
<path d="M101.172 22.637L103.157 22.7315L103.886 22.765L105.401 11.3038C105.401 11.3038 107.273 11.1975 108.143 11.1896C108.963 11.2377 109.656 11.82 109.848 12.6237C109.922 12.9128 109.934 13.2142 109.883 13.5082C109.564 15.1256 108.053 15.7343 106.75 15.9588C106.104 16.0684 105.447 16.1054 104.792 16.0692L106.404 18.5099L109.38 23.0093L110.261 23.0467L112.782 23.159L108.822 17.7515C110.91 16.9241 112.394 15.7658 112.625 13.9436C112.809 12.5173 112.564 11.5225 112.122 10.8094C110.962 8.94384 108.413 9.10144 108.413 9.10144L103.026 9.29843L102.388 13.8805L101.471 20.47L101.172 22.637Z" fill="white"/>
<path d="M137.636 35.1227L137.601 34.458L135.499 34.2199L134.687 34.1288L134.599 32.0561L137.331 32.317L137.315 31.9691L137.283 31.2858L135.373 31.1056L134.563 31.029L134.485 29.2048L137.407 29.4408L137.387 29.124L137.346 28.4241L133.513 28.1218L133.779 35.1186L134.596 35.2138L137.66 35.5658L137.636 35.1227Z" fill="white"/>
<path fill-rule="evenodd" clip-rule="evenodd" d="M131.013 28.5026C131.515 29.033 131.864 29.7919 131.855 30.8865C131.826 33.5526 129.51 34.0274 128.234 33.8904L127.834 33.8486L126.948 33.7533L126.879 27.2947L128.323 27.396C129.109 27.4397 130.244 27.698 131.013 28.5026ZM127.844 28.3714L127.917 32.8533H128.09C128.325 32.8803 128.561 32.891 128.797 32.8851C129.616 32.8619 129.967 32.604 130.173 32.4528C130.179 32.4485 130.185 32.4442 130.19 32.4401C130.636 32.1083 130.938 31.6276 130.882 30.7336C130.836 30.1098 130.711 29.6787 130.452 29.3429C130.363 29.2315 130.263 29.1303 130.154 29.0409C129.693 28.6575 129.085 28.441 127.986 28.3714H127.844Z" fill="white"/>
<path d="M125.189 27.958L125.186 27.3578L124.391 27.2947V33.8139L125.087 33.8953L125.221 33.9116L125.189 27.958Z" fill="white"/>
<path d="M95.3668 25.2565L94.3109 25.1929L93.333 27.2267L92.9298 28.0687L92.4089 25.9479L92.1415 24.8493L90.7903 27.2394L90.2933 28.1153L89.7225 25.178L89.6626 24.879L88.7325 24.8132L89.8622 30.3103L90.3352 29.5172L91.7503 27.1503L92.0197 28.2341L92.6085 30.603L93.0256 29.7929L95.1871 25.6064L95.3668 25.2565Z" fill="white"/>
<path fill-rule="evenodd" clip-rule="evenodd" d="M101.144 29.4814C101.055 30.2895 100.659 31.0257 100.046 31.5229C99.4302 32.032 98.6605 32.2914 97.8776 32.2537C97.5578 32.2395 97.2421 32.1725 96.942 32.0554C96.5549 31.9122 96.2075 31.6708 95.9306 31.3526C95.4588 30.7836 95.2682 30.0152 95.4156 29.2766C95.5593 28.4853 95.9739 27.7767 96.5809 27.2847C97.1607 26.7567 97.9024 26.4665 98.6696 26.4676C99.233 26.462 99.7803 26.6659 100.214 27.0432C100.335 27.1428 100.446 27.2547 100.545 27.3774C101.034 27.9492 101.254 28.7212 101.144 29.4814ZM96.3758 29.3564C96.2746 29.8351 96.3957 30.3359 96.702 30.7059C96.9197 30.9606 97.2047 31.1414 97.5206 31.2254C97.6702 31.2675 97.8235 31.2935 97.9781 31.303C98.5081 31.3277 99.0279 31.1449 99.4369 30.7899C99.8478 30.4549 100.114 29.9614 100.178 29.4189C100.259 28.9221 100.132 28.4125 99.8288 28.0219C99.7931 27.9798 99.7547 27.9401 99.7139 27.9034C99.4084 27.596 99.0002 27.4272 98.5772 27.4334C98.0487 27.416 97.5342 27.6138 97.1411 27.9853C96.7434 28.3362 96.4732 28.8204 96.3758 29.3564Z" fill="white"/>
<path d="M103.969 30.0683C104.725 29.9116 105.191 29.3399 105.294 28.4784C105.375 28.0097 105.249 27.5288 104.95 27.1607C104.651 26.82 104.173 26.6144 103.555 26.5831L101.858 26.4675L101.172 31.8383L101.871 31.9088L102.089 31.9323L102.672 27.4289L103.597 27.4916C103.963 27.5151 104.214 27.6639 104.324 27.9399C104.391 28.1097 104.409 28.2948 104.377 28.4745C104.287 29.0912 103.656 29.2303 103.143 29.242C102.919 29.2463 102.696 29.2312 102.476 29.197L103.016 30.1857L104.099 32.1437L104.524 32.1868L105.244 32.2573L103.969 30.0683Z" fill="white"/>
<path fill-rule="evenodd" clip-rule="evenodd" d="M114.487 27.4171C115.004 27.89 115.339 28.6003 115.257 29.6618C115.045 32.1826 112.895 32.362 111.53 32.2231L111.138 32.1826L110.294 32.0996L110.828 26.4675L112.137 26.5563C112.909 26.6123 113.839 26.8285 114.487 27.4171ZM111.962 27.4538L111.678 27.4326L111.31 31.2658L111.639 31.3101C111.812 31.3256 111.984 31.341 112.152 31.341C113.216 31.3642 114.184 31.0766 114.325 29.548C114.402 29.055 114.259 28.5532 113.933 28.1718C113.424 27.6179 112.55 27.4905 111.962 27.4538Z" fill="white"/>
<path d="M123.562 27.8028L122.606 27.7395L121.51 30.5448L121.197 31.3415L120.199 28.4967L119.817 27.4133L118.596 30.2601L118.252 31.0588L117.252 27.8977L117.085 27.3678L116.099 27.2947L118.12 33.5834L118.46 32.761L119.704 29.7204L120.162 31.0904L121.113 33.9116L121.433 33.1069L123.339 28.3543L123.562 27.8028Z" fill="white"/>
<path d="M67.6376 18.3291L67.8637 16.6983L68.0007 15.7151L66.3421 16.0591L66.5847 16.6601L67.5386 19.0235L67.6376 18.3291Z" fill="#A0ACD4"/>
<path d="M69.7661 15.3951L72.1471 15.715L71.2403 14.4698L70.6344 13.6433L70.3856 13.3001L70.3359 13.2336L68.83 15.2694L69.7661 15.3951Z" fill="#A0ACD4"/>
<path d="M68.5323 15.7151L68.3747 16.6983L68.1146 18.3291L68.0007 19.0235L68.314 18.7623L71.3178 16.2417L69.3184 15.8637L68.5323 15.7151Z" fill="#004B93"/>
</svg>
