<svg width="126" height="56" viewBox="0 0 126 56" fill="none" xmlns="http://www.w3.org/2000/svg">
<path d="M0 0V55.8032H50.0899L55.9493 0H0Z" fill="#BFB8AF"/>
<path d="M125.063 0H55.9723L50.1898 55.8032H125.063V0Z" fill="#595555"/>
<path d="M27.1496 7.38574C20.3764 7.38574 14.7955 8.67581 9.87341 11.2838V31.4284C9.87341 35.7302 11.4925 39.3174 14.5543 41.8418C17.3146 44.1064 26.1521 47.9813 27.1496 48.4175C28.1516 47.9813 36.9892 44.1064 39.7494 41.8418C42.8113 39.3313 44.4303 35.7302 44.4303 31.4284V11.2838C39.5082 8.67581 33.9227 7.38574 27.1496 7.38574Z" fill="#330000"/>
<path d="M26.7359 48.4174C27.7294 47.9867 36.3524 44.1939 39.065 41.9664C42.0271 39.5305 43.6076 36.0294 43.6076 31.8476V11.9574C38.9217 9.46593 33.2516 8.2063 26.7451 8.2063C20.2386 8.2063 14.5638 9.46593 9.87341 11.9574V31.8708C9.87341 36.0387 11.44 39.5536 14.4067 41.9896C17.1239 44.1939 25.7469 47.9867 26.7359 48.4174Z" fill="url(#paint0_radial)"/>
<path fill-rule="evenodd" clip-rule="evenodd" d="M37.0253 46.7763C37.0253 45.8698 37.762 45.135 38.6708 45.135C39.5797 45.135 40.3164 45.8698 40.3164 46.7763C40.3164 47.6827 39.5797 48.4175 38.6708 48.4175C37.762 48.4175 37.0253 47.6827 37.0253 46.7763ZM40.027 46.7763C40.024 47.5196 39.4179 48.1201 38.6726 48.1182C37.9273 48.1162 37.3245 47.5125 37.3254 46.7692C37.3264 46.0258 37.9309 45.4237 38.6762 45.4237C39.4231 45.4266 40.027 46.0314 40.027 46.7763ZM38.0812 47.7653V45.7712L38.644 45.7659C38.8133 45.7424 38.9844 45.794 39.1123 45.9071C39.2401 46.0202 39.3119 46.1835 39.3087 46.3539C39.313 46.6154 39.127 46.8415 38.8692 46.8885C38.9335 46.9687 39.4695 47.7653 39.4695 47.7653H39.03L38.494 46.9313H38.4403V47.7653H38.0812ZM38.9656 46.3432C38.9656 46.2149 38.9228 46.0652 38.6172 46.0652L38.4511 46.0599V46.6587H38.4993C38.8852 46.6587 38.9656 46.4715 38.9656 46.3432Z" fill="#C86E14"/>
<path fill-rule="evenodd" clip-rule="evenodd" d="M11.519 19.8361C18.6993 13.2383 27.4222 11.4888 35.5346 11.4888C37.7245 11.4888 39.8731 11.6131 41.962 11.8065V31.1669C41.962 34.8824 40.6168 37.889 38.0229 40.0345C35.6861 41.936 28.6848 45.0944 26.729 45.9554C24.7503 45.0806 17.7398 41.8992 15.4581 40.0345C12.8779 37.9258 11.519 34.8502 11.519 31.1669V19.8361ZM13.0065 29.9652C13.0065 33.0638 14.471 34.6292 17.3542 34.6292C18.9007 34.6866 20.429 34.2793 21.7432 33.4598V20.803H18.8325V31.8069C18.4198 32.0626 17.9398 32.1878 17.4552 32.166C16.1192 32.166 15.9218 30.9367 15.9218 30.1079V20.803H13.0065V29.9652ZM27.4636 34.6062C27.0214 34.6142 26.5806 34.5568 26.1551 34.4358V40.5916H23.2398V21.5442C24.4188 20.8206 25.7838 20.4603 27.1652 20.5083C30.6451 20.5083 32.555 23.1465 32.555 27.4145C32.555 31.6826 30.6773 34.6062 27.4636 34.6062ZM26.1551 32.0509C26.4577 32.1644 26.7778 32.2236 27.1009 32.2259C28.7766 32.2259 29.58 30.6835 29.58 27.4882C29.58 24.2146 28.8776 22.884 27.1881 22.884C26.8332 22.8809 26.4815 22.9514 26.1551 23.0912V32.0509ZM36.0579 28.4597C33.6523 27.0324 33.2161 25.8675 33.2161 24.3159H33.1977C33.1886 21.954 35.1902 20.5635 37.1093 20.5083C38.2577 20.4417 39.3936 20.777 40.323 21.4568V23.9798C39.6343 23.2922 38.7138 22.8881 37.7428 22.8472C36.9165 22.8242 36.0534 23.1649 36.0258 24.2284C36.0002 25.2176 36.741 25.6492 37.7202 26.2197C37.7938 26.2625 37.8688 26.3062 37.9448 26.351C40.3781 27.7875 40.851 29.0766 40.7959 30.7802C40.7362 32.6494 39.4553 34.6891 36.5767 34.6891C35.4428 34.6746 34.3334 34.3567 33.363 33.7682V31.0794C34.1318 31.7763 35.1114 32.1946 36.1452 32.2673C37.1965 32.2673 37.9035 31.6365 37.8943 30.6328C37.853 29.712 37.3388 29.2147 36.0579 28.4597Z" fill="url(#paint1_radial)"/>
<path fill-rule="evenodd" clip-rule="evenodd" d="M36.3708 28.638C37.6798 29.4085 38.221 29.9159 38.221 30.8556C38.2487 31.8938 37.5364 32.5375 36.4771 32.5375C35.423 32.463 34.425 32.0274 33.6463 31.3019V33.9986C34.624 34.5991 35.7418 34.9235 36.8842 34.9382C39.7844 34.9382 41.0749 32.857 41.135 30.9495C41.1905 29.2112 40.7141 27.8957 38.2626 26.4299L38.1141 26.3417C37.0889 25.7332 36.2982 25.264 36.3291 24.2641C36.3615 23.2164 37.2265 22.8546 38.0591 22.8546C39.0567 22.9082 39.9966 23.3468 40.6864 24.0808V21.4922C39.75 20.7985 38.6056 20.4564 37.4485 20.5243C35.515 20.5807 33.5076 21.9996 33.5076 24.4097C33.5122 26.0071 33.947 27.1957 36.3708 28.638ZM19.0343 20.8391H21.9669V33.7778C20.6428 34.6141 19.103 35.0296 17.5449 34.9711C14.6401 34.9711 13.1646 33.3738 13.1646 30.2119V20.8391H16.1018V30.3341C16.1018 31.1797 16.3007 32.4341 17.6467 32.4341C18.135 32.4563 18.6185 32.3286 19.0343 32.0677V20.8391ZM26.412 34.7503V41.0317H23.4748V21.5955C24.6626 20.8571 26.0379 20.4895 27.4296 20.5384C30.9358 20.5384 32.86 23.2352 32.86 27.5857C32.86 31.9361 31.0098 34.9241 27.7303 34.9241C27.2849 34.9323 26.8407 34.8737 26.412 34.7503ZM27.3649 32.4952C27.0394 32.4929 26.7169 32.4325 26.412 32.3167V23.1741C26.7409 23.0314 27.0952 22.9594 27.4528 22.9627C29.155 22.9627 29.8627 24.3204 29.8627 27.6608C29.8627 30.9213 29.0532 32.4952 27.3649 32.4952Z" fill="url(#paint2_radial)"/>
<path d="M11.519 31.1841C11.519 35.0675 12.8601 38.3102 15.3545 40.5335C17.5897 42.4752 24.4024 45.8732 26.3291 46.7761V46.5334C24.7332 45.7664 17.7327 42.349 15.4841 40.3636C13.0255 38.184 11.7246 35.0238 11.7246 31.1841L11.519 31.1841Z" fill="url(#paint3_linear)"/>
<path d="M27.1697 46.7761C29.0741 45.8684 35.8913 42.5383 38.1264 40.5335C40.6522 38.2714 41.962 35.1015 41.962 31.1841H41.7608C41.7608 35.0384 40.4912 38.1306 37.9968 40.3636C35.8242 42.3053 29.2529 45.5286 27.1519 46.5334L27.1697 46.7761Z" fill="url(#paint4_linear)"/>
<path d="M41.7324 12.044C39.5058 11.8278 37.4766 11.7197 35.5346 11.7197C25.5858 11.7099 17.7811 14.5895 11.7302 20.5158L11.519 20.4175C18.6993 13.3561 27.4222 11.4888 35.5346 11.4888C37.7245 11.4888 39.8731 11.6214 41.962 11.8278L41.7324 12.044Z" fill="url(#paint5_linear)"/>
<path d="M27.1519 32.8254C28.8203 32.8254 29.6202 31.2224 29.6202 27.9016H29.4099C29.4099 30.586 28.9026 32.6053 27.1519 32.6053L27.1519 32.8254Z" fill="url(#paint6_linear)"/>
<path d="M27.9746 32.2098C27.7565 32.2074 27.5398 32.1382 27.3316 32.0046L27.1519 32.2754C27.4151 32.4777 27.6936 32.5833 27.9746 32.5873V32.2098Z" fill="url(#paint7_linear)"/>
<path d="M27.3164 23.6016C27.5277 23.4326 27.7503 23.3466 27.9746 23.3473V22.978C27.692 22.9723 27.4118 23.098 27.1519 23.3473L27.3164 23.6016Z" fill="url(#paint8_linear)"/>
<path d="M29.4023 27.081C29.4023 24.5905 28.9285 23.1615 27.1519 23.1615V22.9778C28.8953 22.9778 29.6202 24.1781 29.6202 27.0605L29.4023 27.081Z" fill="url(#paint9_linear)"/>
<path d="M32.9113 24.619C32.9113 22.1656 34.8952 20.577 37.0253 20.5159V20.7321C35.1146 20.7885 33.1216 22.2079 33.1308 24.619H32.9113Z" fill="url(#paint10_linear)"/>
<path d="M37.8481 22.9778C37.0561 22.9778 36.2333 23.399 36.2025 24.6191H36.4049C36.4049 24.2853 36.5369 23.2021 37.8217 23.2021L37.8481 22.9778Z" fill="url(#paint11_linear)"/>
<path d="M41.7178 24.1262C40.9262 23.4388 39.8476 23.0279 38.7027 22.9778L38.6708 23.1758C39.9651 23.2484 41.1613 23.773 41.962 24.6191L41.7178 24.1262Z" fill="url(#paint12_linear)"/>
<path d="M41.1392 22.0083L40.9362 22.1571C40.0431 21.2014 38.9516 20.7301 37.8481 20.8236V20.5259C39.0299 20.4354 40.1955 20.9604 41.1392 22.0083Z" fill="url(#paint13_linear)"/>
<path d="M40.9471 31.1841C40.8917 33.0454 39.701 35.0764 37.0253 35.0764V35.2873C39.4791 35.2873 41.0752 33.5314 41.1392 31.1933L40.9471 31.1841Z" fill="url(#paint14_linear)"/>
<path d="M33.106 34.4666C34.041 35.3193 35.11 35.7799 36.2025 35.8009V36.1078C35.0378 36.0938 33.8985 35.5926 32.9113 34.66L33.106 34.4666Z" fill="url(#paint15_linear)"/>
<path d="M36.2025 32.8254C35.0659 32.7529 33.9888 32.3365 33.1435 31.6425L32.9113 31.1841C33.7852 31.9996 34.9539 32.501 36.2025 32.5961V32.8254Z" fill="url(#paint16_linear)"/>
<path d="M38.6701 31.1841C38.6963 32.1973 38.0244 32.8254 37.0253 32.8254V32.5961C37.8979 32.5961 38.5043 32.1377 38.4825 31.1887L38.6701 31.1841Z" fill="url(#paint17_linear)"/>
<path d="M37.6161 31.1746C37.6161 30.3708 37.2124 29.9018 35.8854 29.0979C33.4032 27.6002 32.916 26.3226 32.9113 24.6191H33.1201C33.1201 26.2317 33.5609 27.4423 35.9921 28.9257C37.2866 29.7104 37.8063 30.2272 37.848 31.1842L37.6161 31.1746Z" fill="url(#paint18_linear)"/>
<path d="M38.2093 26.5707C40.7205 28.0701 41.1936 29.4495 41.1345 31.1842H40.9298C40.9844 29.4772 40.5158 28.1854 38.1047 26.746C37.0265 26.1047 36.1758 25.6849 36.2031 24.6191H36.4124C36.3851 25.5926 37.1903 25.934 38.2321 26.5614" fill="url(#paint19_linear)"/>
<path d="M26.1251 41.0317H23.2465L23.038 41.4092H26.3291L26.1251 41.0317Z" fill="#8D4A02"/>
<path d="M28.7974 35.1395C28.3322 35.1437 27.8679 35.0804 27.4117 34.9507L27.1519 34.4666C27.6869 34.6821 28.2414 34.7845 28.7974 34.7702V35.1395Z" fill="url(#paint20_linear)"/>
<path d="M32.9113 27.9016C32.9113 31.6979 31.4709 35.2873 27.9746 35.2873V35.0805C30.9666 35.0805 32.7147 32.1621 32.7147 27.9016H32.9113Z" fill="url(#paint21_linear)"/>
<path d="M23.038 22.0122C24.2638 20.978 25.698 20.4581 27.1519 20.521V20.7987C25.7765 20.7358 24.4175 21.2082 23.2437 22.1571L23.038 22.0122Z" fill="url(#paint22_linear)"/>
<path d="M27.1519 20.5159C31.2921 20.5159 32.9113 23.989 32.9113 27.9016H32.6942C32.6942 23.4778 30.7303 20.7356 27.1519 20.7356L27.1519 20.5159Z" fill="url(#paint23_linear)"/>
<path fill-rule="evenodd" clip-rule="evenodd" d="M13.3688 21.7139H16.2737L16.4553 21.3364H13.1646L13.3688 21.7139ZM19.1287 21.7139H22.0291L22.2152 21.3364H18.9245L19.1287 21.7139Z" fill="#FCB813"/>
<path d="M11.519 32.0048V20.5159L11.8975 20.6094V32.0048H11.519Z" fill="#CB7A17"/>
<path d="M40.6949 24.619V21.3364L40.3164 21.4463V24.0838L40.6949 24.619Z" fill="#975006"/>
<path d="M16.0032 30.3634V21.3364L15.6329 21.5371V30.3634H16.0032Z" fill="#CB7A17"/>
<path d="M41.962 31.184V11.6855L42.3322 11.4888V31.184H41.962Z" fill="#D99814"/>
<path d="M32.9113 31.1841V34.4666L33.2898 34.3468V31.6543L32.9113 31.1841Z" fill="#B76E11"/>
<path d="M19.3025 32.8253V21.5532L18.924 21.3364V32.7075L19.3025 32.8253Z" fill="#D89016"/>
<path d="M13.5348 30.3634V21.5399L13.1646 21.3364V30.3634H13.5348Z" fill="#D89016"/>
<path d="M17.2785 35.2873C14.4709 35.2873 13.1646 33.488 13.1646 30.3635H13.3512C13.3512 33.4926 14.6741 35.0735 17.2785 35.0735V35.2873Z" fill="url(#paint24_linear)"/>
<path d="M21.3924 34.5974C20.1689 35.6431 18.7335 36.1681 17.2785 36.1023V35.8515C18.6643 35.9194 20.0338 35.4371 21.2114 34.4666L21.3924 34.5974Z" fill="url(#paint25_linear)"/>
<path d="M18.1013 32.4565C18.5864 32.4793 19.0677 32.3238 19.5 32.0046L19.7468 32.2028C19.2537 32.6431 18.6803 32.8586 18.1013 32.8211V32.4565Z" fill="url(#paint26_linear)"/>
<path d="M17.2785 32.8254C15.8448 32.8254 15.6329 31.3549 15.6329 30.3635H15.8546C15.8546 31.5807 16.1749 32.5666 17.2785 32.5666V32.8254Z" fill="url(#paint27_linear)"/>
<path d="M23.038 21.3364V41.0317L23.4164 40.8163V21.4488L23.038 21.3364Z" fill="#CB7A17"/>
<path fill-rule="evenodd" clip-rule="evenodd" d="M27.5221 23.1324V31.972L27.1519 32.1266V22.9778L27.5221 23.1324ZM27.5221 41.0317V34.8295L27.1519 34.5531V40.8163L27.5221 41.0317Z" fill="#C07414"/>
<path d="M22.5936 34.4666V21.3364L22.2151 21.5503V34.355L22.5936 34.4666Z" fill="#C07414"/>
<path fill-rule="evenodd" clip-rule="evenodd" d="M97.8644 25.3166V24.9947C98.7158 24.6727 98.9056 24.4768 98.9056 23.2824V19.7086C98.9056 18.6588 98.3271 18.0616 97.3183 18.0616C96.7038 18.0891 96.1051 18.2669 95.5738 18.5795V23.2824C95.5738 24.4768 95.7635 24.6821 96.6288 24.9947V25.3166H92.8158V24.9947C93.6811 24.6727 93.8708 24.4768 93.8708 23.2824V15.9295C93.8708 14.6044 93.7274 14.4738 92.6538 14.0866V13.7786C93.6205 13.6988 94.571 13.4805 95.4766 13.1301H95.5738V18.0616C96.0874 17.6231 97.3045 16.8812 98.2161 16.8812C99.3868 16.8812 100.558 17.6091 100.558 19.6806V23.2684C100.558 24.4628 100.752 24.6681 101.617 24.9807V25.3026L97.8644 25.3166ZM68.7713 18.1596L70.6639 25.3166H72.5057L74.6991 18.5935C75.7912 15.2343 76.0966 14.8937 76.9111 14.5065V14.1659H73.2091V14.4971C73.8476 14.7771 74.1346 14.9964 74.1346 15.7102C74.0502 16.6961 73.845 17.6677 73.5237 18.6028L71.955 23.735L70.4002 17.931C70.1718 17.1525 70.026 16.3517 69.9652 15.5422C69.9652 14.973 70.2567 14.7304 70.8351 14.5065V14.1659H67.0637V14.4971C67.7208 14.7724 68.091 15.029 68.091 15.8222C68.0283 16.7112 67.8622 17.5897 67.5959 18.4395L66.0734 23.9682L64.6852 18.3696C64.4036 17.4265 64.216 16.4575 64.1253 15.4769C64.1253 14.9077 64.3011 14.7164 64.8749 14.5065V14.1659H60.886V14.5065C61.7005 14.8937 61.992 15.2949 62.8712 18.5608L64.6852 25.3166H66.6889L68.7713 18.1596ZM79.3636 25.5125C80.6946 25.4718 81.9142 24.7533 82.6029 23.6043L82.3808 23.3944C81.7628 23.9359 80.969 24.2298 80.1503 24.2202C78.8222 24.2202 77.5404 23.329 77.5404 20.9543V20.889H82.3946C82.4047 20.7009 82.4047 20.5125 82.3946 20.3244C82.3946 17.5904 81.1128 16.8812 79.5071 16.8812C77.6561 16.8812 75.8051 18.4815 75.8051 21.3928C75.8051 24.0429 77.309 25.5125 79.3636 25.5125ZM80.8259 19.9838C80.8259 18.4162 80.3308 17.7537 79.3683 17.7537C78.4057 17.7537 77.6515 18.3042 77.5404 20.1611L80.8259 19.9838ZM87.1887 23.0211H86.7861L86.8972 25.046C87.6648 25.3633 88.4878 25.5219 89.3174 25.5125C90.9602 25.5125 92.3484 24.4115 92.3484 22.8765C92.3484 21.326 91.1312 20.8043 90.0384 20.336C89.1484 19.9545 88.341 19.6085 88.341 18.7708C88.3734 18.1249 88.9172 17.6267 89.558 17.6557C90.3586 17.6557 90.8398 18.0943 91.4322 18.9341H91.8162V17.2218C91.1236 16.9917 90.3984 16.8767 89.6691 16.8812C88.2392 16.8812 86.8926 17.8843 86.8926 19.354C86.8926 20.8297 88.0373 21.3341 89.0931 21.7994C89.9967 22.1976 90.8352 22.5671 90.8352 23.4923C90.8223 23.847 90.6673 24.1812 90.4056 24.4186C90.144 24.656 89.7981 24.7763 89.447 24.752C88.577 24.752 87.8644 24.2202 87.1887 23.0211ZM102.515 24.9947V25.3166H106.268V24.9947C105.403 24.6821 105.227 24.4954 105.227 23.2824V16.8766C104.301 17.2366 103.328 17.4598 102.339 17.5391V17.861C103.348 18.2389 103.575 18.3836 103.575 19.7272V23.2824C103.575 24.4954 103.38 24.6867 102.515 24.9947ZM103.348 14.4412C103.356 13.871 103.819 13.4143 104.384 13.4194C104.95 13.4246 105.405 13.8896 105.402 14.4597C105.4 15.0299 104.941 15.4908 104.375 15.4909C104.099 15.4948 103.834 15.385 103.64 15.1869C103.446 14.9887 103.34 14.7194 103.348 14.4412ZM106.55 28.6151V28.9557H110.525V28.6151C109.503 28.3025 109.308 28.1299 109.308 26.9029V25.3632C109.67 25.4545 110.041 25.503 110.414 25.5079C112.339 25.5079 115.19 24.0056 115.19 20.7723C115.19 18.4442 113.709 16.8766 111.858 16.8766C110.906 16.9482 110.005 17.3353 109.294 17.9776V16.8766C108.366 17.2453 107.388 17.4687 106.393 17.5391V17.861C107.466 18.2529 107.61 18.4022 107.61 19.7272V26.9029C107.61 28.1486 107.416 28.3072 106.55 28.6151ZM109.327 24.2202C109.717 24.4667 110.167 24.6007 110.627 24.6074C112.052 24.6074 113.404 23.4923 113.404 21.2109C113.404 19.2094 112.284 18.043 110.919 18.043C110.36 18.0682 109.816 18.2282 109.331 18.5095L109.327 24.2202ZM63.5144 38.2588L65.1479 43.251L66.9157 43.2323L68.6787 38.1562C69.4145 36.038 69.7199 35.6181 70.4418 35.3289V34.9883H67.2026V35.3289C67.7764 35.4922 68.0355 35.6835 68.0355 36.2013C67.8951 37.112 67.6641 38.0061 67.346 38.87L66.365 42.0706L65.259 38.3382C65.0101 37.6203 64.8394 36.8772 64.75 36.122C64.75 35.6555 64.9721 35.5108 65.4858 35.3475V35.007H61.9087V35.3475C62.4409 35.5761 62.7139 35.7861 63.5144 38.2588ZM71.2053 43.251V42.9291C72.0753 42.6212 72.265 42.4252 72.265 41.2122V37.657C72.265 36.318 72.0429 36.1733 71.0295 35.7908V35.4688C72.026 35.3947 73.0066 35.1747 73.9402 34.8157V41.2122C73.9402 42.4252 74.116 42.6118 74.9814 42.9291V43.251H71.2053ZM73.0809 31.3539C72.5148 31.3479 72.0506 31.8048 72.0429 32.3756H72.0568C72.048 32.6509 72.1504 32.9181 72.3406 33.116C72.5307 33.3138 72.7923 33.4255 73.0656 33.4253C73.6317 33.4278 74.0932 32.9681 74.0974 32.3973C74.1016 31.8265 73.647 31.3599 73.0809 31.3539ZM82.9407 42.8778C82.3877 43.151 81.7905 43.3217 81.1776 43.3816C80.6081 43.4165 80.116 42.9847 80.0716 42.4112C79.3938 43.0058 78.5465 43.3684 77.6515 43.447C77.1126 43.466 76.5894 43.2628 76.2025 42.8842C75.8157 42.5056 75.5986 41.9843 75.6015 41.4408C75.6015 39.9851 76.4807 38.7721 80.0578 38.4828V37.5404C80.0578 36.3133 79.3035 35.7628 78.1512 35.7628C77.7328 35.7577 77.3161 35.8175 76.9157 35.9401V36.0054C77.2787 36.1132 77.5275 36.4496 77.5265 36.8312C77.5407 37.0556 77.4614 37.2759 77.3077 37.4388C77.1539 37.6018 76.9397 37.6927 76.7167 37.6897C76.4849 37.6975 76.2602 37.6082 76.0962 37.4428C75.9322 37.2774 75.8435 37.0509 75.8514 36.8172C75.8514 35.7534 77.6607 34.8157 79.1508 34.8157C81.1267 34.8157 81.719 35.8794 81.719 37.8063V41.2308C81.719 42.4112 82.1355 42.5092 82.9499 42.5885L82.9407 42.8778ZM79.4654 39.2759C79.6642 39.2825 79.8622 39.3044 80.0578 39.3413V41.9913C79.6346 42.1839 79.1754 42.2825 78.7112 42.2806C78.3504 42.3132 77.9925 42.192 77.7243 41.9465C77.4562 41.7009 77.3022 41.3534 77.2998 40.9882C77.2998 39.8545 78.1512 39.2759 79.4654 39.2759ZM95.1388 35.4595C95.1388 33.0847 94.8704 32.7955 93.8894 32.4222V32.1003H97.5405V32.4082C96.5594 32.7815 96.2864 33.0381 96.2864 35.4455V40.1811C96.2864 42.3459 94.3012 43.4936 91.8486 43.4936C89.4932 43.4936 87.6839 42.4252 87.6839 40.1811V34.2465C87.6839 33.0194 87.4571 32.7442 86.4298 32.4222V32.1003H90.7288V32.4082C89.72 32.7302 89.4932 33.0054 89.4932 34.2325V40.279C89.4932 41.4874 90.3262 42.3925 92.1217 42.3925C93.9171 42.3925 95.1342 41.6367 95.1342 40.0598L95.1388 35.4595ZM98.466 42.9291V43.251H102.987V42.9291C101.802 42.6211 101.515 42.3599 101.515 41.1515V38.4828H103.103C105.217 38.4828 106.837 37.3817 106.837 35.1049C106.837 33.1034 105.615 32.1003 103.246 32.1003H98.466V32.4362C99.4933 32.7442 99.7015 32.9868 99.7015 34.1998V41.1515C99.7015 42.3785 99.4933 42.6211 98.466 42.9291ZM102.265 37.6523C104.398 37.6523 105.042 36.5559 105.042 35.1329C105.042 34.0179 104.514 32.9168 102.959 32.9168H101.534V37.657L102.265 37.6523ZM108.36 40.3397H107.897L108.04 42.7751C108.942 43.2128 109.927 43.4453 110.928 43.4563C112.964 43.4563 114.584 42.1453 114.584 40.1904C114.584 38.4276 113.14 37.513 111.811 36.6711C110.677 35.9532 109.627 35.2881 109.627 34.1951C109.645 33.7794 109.829 33.3885 110.136 33.111C110.444 32.8335 110.849 32.6928 111.261 32.7208C112.279 32.7208 112.899 33.1501 113.667 34.5497H114.13V32.5109C113.292 32.125 112.389 31.9003 111.469 31.8484C109.72 31.8484 108.003 33.0801 108.003 34.8856C108.003 36.557 109.368 37.4577 110.653 38.3058C111.796 39.0604 112.876 39.7734 112.876 40.9509C112.863 41.4139 112.665 41.852 112.327 42.1656C111.989 42.4792 111.539 42.6418 111.081 42.6165C110.039 42.6165 109.206 42.038 108.36 40.3397Z" fill="#DFDBD7"/>
<defs>
<radialGradient id="paint0_radial" cx="0" cy="0" r="1" gradientUnits="userSpaceOnUse" gradientTransform="translate(15.0832 9.61579) rotate(90) scale(55.9625 46.9484)">
<stop stop-color="#FFDC00"/>
<stop offset="0.35" stop-color="#FFBE00"/>
<stop offset="1" stop-color="#C86E14"/>
</radialGradient>
<radialGradient id="paint1_radial" cx="0" cy="0" r="1" gradientUnits="userSpaceOnUse" gradientTransform="translate(15.2024 14.42) rotate(90) scale(55.536 49.0527)">
<stop stop-color="#5C3333"/>
<stop offset="0.35" stop-color="#471919"/>
<stop offset="0.85" stop-color="#330000"/>
</radialGradient>
<radialGradient id="paint2_radial" cx="0" cy="0" r="1" gradientUnits="userSpaceOnUse" gradientTransform="translate(15.3126 14.4638) rotate(90) scale(56.5457 77.1036)">
<stop stop-color="#FFDC00"/>
<stop offset="0.35" stop-color="#FFBE00"/>
<stop offset="1" stop-color="#C86E14"/>
</radialGradient>
<linearGradient id="paint3_linear" x1="32.5625" y1="40.2694" x2="16.9614" y2="25.5096" gradientUnits="userSpaceOnUse">
<stop stop-color="#B76E11"/>
<stop offset="0.16" stop-color="#C27514"/>
<stop offset="0.38" stop-color="#C97916"/>
<stop offset="1" stop-color="#CB7A17"/>
</linearGradient>
<linearGradient id="paint4_linear" x1="35.7232" y1="55.8921" x2="51.3199" y2="41.132" gradientUnits="userSpaceOnUse">
<stop stop-color="#FFC10E"/>
<stop offset="1" stop-color="#D99814"/>
</linearGradient>
<linearGradient id="paint5_linear" x1="30.1515" y1="24.8484" x2="34.1799" y2="7.77007" gradientUnits="userSpaceOnUse">
<stop stop-color="#E39F15"/>
<stop offset="0.97" stop-color="#8D4A02"/>
</linearGradient>
<linearGradient id="paint6_linear" x1="28.8631" y1="35.4493" x2="32.7765" y2="33.4021" gradientUnits="userSpaceOnUse">
<stop offset="0.05" stop-color="#FFD300"/>
<stop offset="0.95" stop-color="#B76E11"/>
</linearGradient>
<linearGradient id="paint7_linear" x1="28.2964" y1="31.9798" x2="27.2867" y2="31.7198" gradientUnits="userSpaceOnUse">
<stop offset="0.05" stop-color="#FFD300"/>
<stop offset="0.95" stop-color="#EFAF13"/>
</linearGradient>
<linearGradient id="paint8_linear" x1="27.4685" y1="24.1713" x2="28.4552" y2="23.5913" gradientUnits="userSpaceOnUse">
<stop offset="0.05" stop-color="#A15C0A"/>
<stop offset="0.95" stop-color="#8D4A02"/>
</linearGradient>
<linearGradient id="paint9_linear" x1="31.2774" y1="24.8811" x2="27.6774" y2="22.6664" gradientUnits="userSpaceOnUse">
<stop offset="0.05" stop-color="#B76E11"/>
<stop offset="0.95" stop-color="#8D4A02"/>
</linearGradient>
<linearGradient id="paint10_linear" x1="34.7902" y1="18.1279" x2="30.5586" y2="22.0776" gradientUnits="userSpaceOnUse">
<stop offset="0.05" stop-color="#FFCA05"/>
<stop offset="0.95" stop-color="#C07414"/>
</linearGradient>
<linearGradient id="paint11_linear" x1="36.99" y1="25.3225" x2="38.5826" y2="23.5896" gradientUnits="userSpaceOnUse">
<stop offset="0.05" stop-color="#A2610A"/>
<stop offset="0.95" stop-color="#8D4A02"/>
</linearGradient>
<linearGradient id="paint12_linear" x1="43.5709" y1="23.5528" x2="42.0986" y2="20.9989" gradientUnits="userSpaceOnUse">
<stop stop-color="#E29618"/>
<stop offset="0.95" stop-color="#8D4A02"/>
</linearGradient>
<linearGradient id="paint13_linear" x1="36.3278" y1="21.2493" x2="37.6693" y2="23.8056" gradientUnits="userSpaceOnUse">
<stop offset="0.05" stop-color="#FFCA05"/>
<stop offset="0.95" stop-color="#EC9D00"/>
</linearGradient>
<linearGradient id="paint14_linear" x1="39.3215" y1="29.5158" x2="35.3253" y2="33.7394" gradientUnits="userSpaceOnUse">
<stop offset="0.05" stop-color="#975006"/>
<stop offset="0.95" stop-color="#8D4A02"/>
</linearGradient>
<linearGradient id="paint15_linear" x1="31.4621" y1="35.5074" x2="32.8922" y2="38.002" gradientUnits="userSpaceOnUse">
<stop stop-color="#975006"/>
<stop offset="0.95" stop-color="#8D4A02"/>
</linearGradient>
<linearGradient id="paint16_linear" x1="37.6459" y1="32.0233" x2="36.1908" y2="29.4456" gradientUnits="userSpaceOnUse">
<stop offset="0.05" stop-color="#FFD300"/>
<stop offset="1" stop-color="#EFAF13"/>
</linearGradient>
<linearGradient id="paint17_linear" x1="37.9454" y1="33.7803" x2="39.6078" y2="32.1668" gradientUnits="userSpaceOnUse">
<stop offset="0.05" stop-color="#FFD300"/>
<stop offset="0.95" stop-color="#E5A812"/>
</linearGradient>
<linearGradient id="paint18_linear" x1="30.3149" y1="27.6898" x2="36.3438" y2="32.7531" gradientUnits="userSpaceOnUse">
<stop stop-color="#C07414"/>
<stop offset="0.4" stop-color="#A15C0A"/>
<stop offset="0.6" stop-color="#A15C0A"/>
<stop offset="1" stop-color="#E5A812"/>
</linearGradient>
<linearGradient id="paint19_linear" x1="34.0441" y1="27.5673" x2="40.258" y2="32.4353" gradientUnits="userSpaceOnUse">
<stop stop-color="#A2610A"/>
<stop offset="0.4" stop-color="#F1B70F"/>
<stop offset="0.6" stop-color="#F1B70F"/>
<stop offset="0.95" stop-color="#975006"/>
</linearGradient>
<linearGradient id="paint20_linear" x1="26.7585" y1="35.1988" x2="28.0796" y2="36.1537" gradientUnits="userSpaceOnUse">
<stop offset="0.05" stop-color="#975006"/>
<stop offset="0.95" stop-color="#8D4A02"/>
</linearGradient>
<linearGradient id="paint21_linear" x1="31.1223" y1="24.7423" x2="24.3039" y2="29.3201" gradientUnits="userSpaceOnUse">
<stop offset="0.05" stop-color="#A15C00"/>
<stop offset="0.95" stop-color="#8D4A02"/>
</linearGradient>
<linearGradient id="paint22_linear" x1="25.3767" y1="19.6484" x2="24.1001" y2="22.3906" gradientUnits="userSpaceOnUse">
<stop offset="0.05" stop-color="#FFD000"/>
<stop offset="0.95" stop-color="#EC9D19"/>
</linearGradient>
<linearGradient id="paint23_linear" x1="25.053" y1="23.5678" x2="32.1984" y2="29.1772" gradientUnits="userSpaceOnUse">
<stop offset="0.05" stop-color="#FFD000"/>
<stop offset="0.5" stop-color="#DC8C00"/>
<stop offset="0.95" stop-color="#A85C00"/>
</linearGradient>
<linearGradient id="paint24_linear" x1="10.6146" y1="33.3176" x2="15.4471" y2="37.387" gradientUnits="userSpaceOnUse">
<stop offset="0.05" stop-color="#D89016"/>
<stop offset="0.95" stop-color="#8D4A02"/>
</linearGradient>
<linearGradient id="paint25_linear" x1="19.6335" y1="33.9082" x2="18.3608" y2="36.6578" gradientUnits="userSpaceOnUse">
<stop offset="0.05" stop-color="#A15C0A"/>
<stop offset="0.95" stop-color="#8D4A02"/>
</linearGradient>
<linearGradient id="paint26_linear" x1="18.665" y1="33.387" x2="19.7254" y2="32.1647" gradientUnits="userSpaceOnUse">
<stop offset="0.05" stop-color="#FFD300"/>
<stop offset="0.95" stop-color="#FFC10E"/>
</linearGradient>
<linearGradient id="paint27_linear" x1="17.9017" y1="31.7836" x2="15.6402" y2="30.2353" gradientUnits="userSpaceOnUse">
<stop offset="0.05" stop-color="#FFD300"/>
<stop offset="0.95" stop-color="#CB7A17"/>
</linearGradient>
</defs>
</svg>
